PathFileType	4	(X/Y/Z)	pose_F01_0-77.trc
DataRate	CameraRate	NumFrames	NumMarkers	Units	OrigDataRate	OrigDataStartFrame	OrigNumFrames
30	30	5	21	m	30	19	77
Frame#	Time	CHip			RHip			RKnee			RAnkle			RBigToe			RSmallToe			RHeel			LHip			LKnee			LAnkle			LBigToe			LSmallToe			LHeel			Neck			Nose			RShoulder			RElbow			RWrist			LShoulder			LElbow			LWrist			
		X1	Y1	Z1	X2	Y2	Z2	X3	Y3	Z3	X4	Y4	Z4	X5	Y5	Z5	X6	Y6	Z6	X7	Y7	Z7	X8	Y8	Z8	X9	Y9	Z9	X10	Y10	Z10	X11	Y11	Z11	X12	Y12	Z12	X13	Y13	Z13	X14	Y14	Z14	X15	Y15	Z15	X16	Y16	Z16	X17	Y17	Z17	X18	Y18	Z18	X19	Y19	Z19	X20	Y20	Z20	X21	Y21	Z21	
19	0.6333333333333333	-0.2337329416905788	1.8781269289904003	-0.5155633038588404	-0.24169325083435925	1.876111160645772	-0.45365412914225645	-0.22294942780841245	1.7112806245343035	-0.43048655820671167	-0.2552649881044996	1.5635661309171407	-0.31484975948817046	-0.22383353308117088	1.5207322263046177	-0.35555928200345177	-0.22943912643576217	1.5190071662202282	-0.3145818102495265	-0.2696988166314367	1.5612890861401436	-0.2986418662698583	-0.230383495279494	1.8814921999628216	-0.5793209535103614	-0.23621266475564423	1.7247656052094624	-0.5776485708097633	-0.2721704954641672	1.5949987076506662	-0.5227832762298487	-0.24292644128409438	1.567131016802402	-0.5910916007627677	-0.25002372775257004	1.5727666190186436	-0.6012939908673373	-0.27198747004910384	1.582102357953932	-0.508148131351594	-0.23838510762437	2.051460477375381	-0.5292394581009899	-0.2218061254867003	2.1339729309157027	-0.5504911433269718	-0.24696019993794485	2.049966814002335	-0.4467878337423267	-0.19782104489830876	2.0674036723935916	-0.43999101889503217	-0.1361777550023446	2.1269126115290535	-0.5423734084439282	-0.22454138337046572	2.052951314312049	-0.6185586641535931	-0.2147519350942319	1.971500400669749	-0.6605376040161889	-0.2021364255423282	2.0228770407367676	-0.6388679065474085
20	0.6666666666666666	-0.23529429026318327	1.8855959974781504	-0.5141622906896233	-0.24421248670637294	1.8837825131841437	-0.4470506370632315	-0.22590736752932328	1.7173213814078951	-0.42320997736037713	-0.25638465888733425	1.5633993758967646	-0.31832202752060357	-0.22603368586688474	1.5195550867201824	-0.3523714267810767	-0.2332325577765657	1.5190921617824888	-0.3100202798926409	-0.26951690685750623	1.5598756750226384	-0.3082909086607407	-0.22836136430499132	1.8880917625187945	-0.5736423371790922	-0.2360695641739517	1.7287941785990175	-0.5781661435451124	-0.2714828951316767	1.5970285552201207	-0.5239562421313647	-0.24001281741261868	1.5634893595168233	-0.5937183401555925	-0.2498102064977556	1.5731144813090456	-0.601568143065047	-0.27198747004910384	1.582102357953932	-0.508148131351594	-0.23929168207029147	2.0537734372603063	-0.52417957435739	-0.21884948948496255	2.1326177245539837	-0.5489180689641742	-0.24563332954602504	2.053199962958255	-0.4355570554047867	-0.18915232303604318	2.071038006196759	-0.44601024590888627	-0.13336304107519253	2.124759560436248	-0.5419037693148846	-0.2257571191094134	2.054259551601203	-0.6136453030071038	-0.2149415951569109	1.9752377322432775	-0.6523479737465231	-0.20813629030648895	2.0335411682778584	-0.6238320437896085
21	0.7	-0.23319711297752468	1.8837487459448727	-0.5075495105601417	-0.24217034632089313	1.8803545579240535	-0.43992955231892816	-0.2278411173648997	1.7142514839867447	-0.4206978789957681	-0.25505051517326377	1.5628840360420901	-0.3148382370665562	-0.22341919441622993	1.5166896570491537	-0.35482042200927094	-0.2294488222133367	1.517143047966272	-0.31366144045067945	-0.26713224849579315	1.5575702078660765	-0.3009019274393196	-0.22718869943873893	1.8864409943847205	-0.5701006195987304	-0.23711160433223877	1.7321133963653097	-0.5730288414454222	-0.2716861216428749	1.5975328224528542	-0.5238854823473498	-0.24161329665666734	1.5658124077256814	-0.5879320390489003	-0.24959668524294115	1.5734623435994477	-0.6018422952627567	-0.27198747004910384	1.582102357953932	-0.508148131351594	-0.23828775139095337	2.0537583795714833	-0.5210843475247625	-0.21502096149368957	2.132644094347388	-0.545868894615706	-0.2464612818431067	2.0546467570310925	-0.43073886659228156	-0.19395206270693302	2.0780505837724235	-0.44785482092450485	-0.13384052447933165	2.131783252321201	-0.5478701939259862	-0.22464518761136304	2.055407509040326	-0.6105093340080324	-0.21704386916320823	1.9768279217340057	-0.6504212959293648	-0.20680120935521715	2.028123806126234	-0.6186177758127565
22	0.7333333333333333	-0.2333778160125222	1.8866434534652647	-0.5080545324182578	-0.24234785805135442	1.8834295829165946	-0.44057510984623466	-0.23205327136772552	1.7201968182587384	-0.4165509185248054	-0.25576681985915095	1.5668668280257647	-0.3143598466937028	-0.22308052863234193	1.5197375450158432	-0.35103321956183137	-0.23174779459998135	1.5185950096153051	-0.3113896257105361	-0.26913822849367336	1.5623135190052033	-0.3037431927529593	-0.2264491106014284	1.8890878003590734	-0.5674129822015191	-0.23564480100911733	1.7314717284122416	-0.5660455754375614	-0.27396521546890407	1.5964109189440139	-0.5213645658108945	-0.23922953677253128	1.564335543541698	-0.59037447480931	-0.24730036565524624	1.5694639397624774	-0.6037111556397238	-0.27198747004910384	1.582102357953932	-0.508148131351594	-0.239291076735644	2.054832497883698	-0.5163760535678864	-0.21495857008761135	2.131359157273661	-0.5451202380389202	-0.24730798025221756	2.056911068603871	-0.4260468944701902	-0.19035131420858747	2.0752631876156062	-0.4602309733565095	-0.13252235374191765	2.127072084589706	-0.5401131297910118	-0.2259666957760565	2.0554971772122697	-0.6058994072238283	-0.2149173793291279	1.9770717757968141	-0.6527032832689241	-0.20621420198179466	2.036029104147447	-0.6179809018685817
23	0.7666666666666667	-0.23362452858595018	1.8824367743109092	-0.5074002247892877	-0.24350196051439504	1.8793098257882408	-0.434607523441611	-0.23006480470619697	1.7209720288880632	-0.40977051957879973	-0.25548665628508965	1.5650367795603721	-0.3145230701586584	-0.223544629900391	1.5170339715336976	-0.35479148258687615	-0.23153566684181898	1.5181003632538992	-0.31154432383251546	-0.267708843568016	1.5605212452305108	-0.3006187035750102	-0.2265481260005088	1.8858558031372175	-0.566972608872537	-0.24009593199086565	1.7278077077655145	-0.5608095109158101	-0.2739367480487616	1.596311853050633	-0.5213164205798875	-0.2439254184927347	1.566526960329971	-0.5857572710592619	-0.24990563750534275	1.5745492775282577	-0.6018507878733339	-0.27198747004910384	1.582102357953932	-0.508148131351594	-0.2392447834464069	2.05487818286279	-0.5163405652047511	-0.21206197722074832	2.131274408813694	-0.5443159701793585	-0.2452937064839059	2.056571285445329	-0.4275389654780182	-0.1862732297227765	2.0722944353008024	-0.44561472107398264	-0.12378139964727097	2.1228540794804114	-0.5347367713471903	-0.22595910442610526	2.0569009171057324	-0.6063871185849149	-0.21491186444139798	1.9783837592565037	-0.6530649028879008	-0.20721065618700543	2.0366852080185573	-0.6215681465985067
